<svg width="33" height="34" viewBox="0 0 33 34" fill="none" xmlns="http://www.w3.org/2000/svg">
<path d="M14.8907 23.9272H18.1113C18.8306 23.9272 19.4138 24.5112 19.4138 25.2298V29.7529H13.5874V25.2298C13.5874 24.5105 14.1714 23.9272 14.8899 23.9272H14.8907Z" fill="#E6EAEE"/>
<path d="M27.6179 13.3481L17.2632 5.11457C16.8168 4.75934 16.1843 4.75934 15.7371 5.11457L5.38396 13.3481C4.79927 13.8129 4.45801 14.5197 4.45801 15.267V26.8116C4.45801 28.4363 5.77523 29.7535 7.39988 29.7535H14.0492V25.1531C14.0492 24.4765 14.5979 23.9271 15.2753 23.9271H17.7266C18.4032 23.9271 18.9526 24.4758 18.9526 25.1531V29.7535H25.6012C27.2259 29.7535 28.5431 28.4363 28.5431 26.8116V15.267C28.5431 14.5197 28.2033 13.8129 27.6179 13.3481Z" fill="#939393"/>
<path d="M27.6169 13.3474L17.263 5.11457C16.8166 4.75934 16.1841 4.75934 15.7376 5.11457L5.38299 13.3481C4.79829 13.8129 4.45703 14.5197 4.45703 15.267V18.9877L15.7369 10.0179C16.1833 9.6627 16.8158 9.6627 17.263 10.0179L28.5421 18.9877V15.267C28.5421 14.5197 28.2009 13.8129 27.6162 13.3474H27.6169Z" fill="#939393"/>
</svg>
