<svg width="33" height="34" viewBox="0 0 33 34" fill="none" xmlns="http://www.w3.org/2000/svg">
<path d="M16.5002 12.9468C14.1466 12.9468 12.146 14.9473 12.146 17.3009C12.146 19.6545 14.1466 21.6551 16.5002 21.6551C18.8538 21.6551 20.8543 19.6545 20.8543 17.3009C20.8543 14.9473 18.8538 12.9468 16.5002 12.9468Z" fill="#939393"/>
<path d="M22.0812 4.23828H11.0375C6.7625 4.23828 3.4375 7.56328 3.4375 11.7195V22.7633C3.4375 27.0383 6.7625 30.3633 11.0375 30.3633H22.0812C26.2375 30.3633 29.5625 27.0383 29.5625 22.7633V11.7195C29.5625 7.56328 26.2375 4.23828 22.0812 4.23828ZM16.5 24.1883C12.7 24.1883 9.73125 21.1008 9.73125 17.4195C9.73125 13.7383 12.7 10.532 16.5 10.532C20.3 10.532 23.2688 13.6195 23.2688 17.3008C23.2688 20.982 20.3 24.1883 16.5 24.1883ZM23.5062 11.957C22.675 11.957 21.9625 11.2445 21.9625 10.4133C21.9625 9.58203 22.675 8.86953 23.5062 8.86953C24.3375 8.86953 25.05 9.58203 25.05 10.4133C25.05 11.2445 24.3375 11.957 23.5062 11.957Z" fill="#939393"/>
</svg>
