<svg width="33" height="34" viewBox="0 0 33 34" fill="none" xmlns="http://www.w3.org/2000/svg">
<g clip-path="url(#clip0_158_4029)">
<path d="M11.7056 20.0784C11.8367 20.297 11.9786 20.5098 12.1313 20.7169C11.9795 20.5098 11.8367 20.2978 11.7056 20.0784Z" fill="#939393"/>
<path d="M16.26 23.6995L12.9683 26.992C13.6126 26.3477 14.657 26.3477 15.3014 26.992C15.9457 27.6364 15.9457 28.6816 15.3014 29.3251L20.0542 24.5715C20.2794 24.3463 20.4857 24.107 20.6812 23.8612C20.0616 24.008 19.4239 24.0922 18.7713 24.0922C17.9059 24.0922 17.0619 23.9552 16.26 23.6995Z" fill="#939393"/>
<path d="M21.3996 14.6987C21.8121 15.4808 21.539 16.4552 20.7651 16.899C19.9748 17.3528 18.9658 17.0789 18.5129 16.2885C18.498 16.2629 18.4791 16.2398 18.4634 16.2143C18.9188 16.9724 19.1671 17.8395 19.1671 18.747C19.1671 19.4648 19.0104 20.1561 18.7216 20.7905C18.7381 20.7905 18.7546 20.793 18.7711 20.793C20.0903 20.793 21.3303 20.2799 22.2625 19.3468L22.4465 19.1636C22.4531 19.025 22.4671 18.8873 22.4671 18.7478C22.4671 17.3049 22.0926 15.9206 21.3996 14.6987Z" fill="#939393"/>
<path d="M15.3011 26.992C14.6568 26.3476 13.6124 26.3476 12.968 26.992C11.0433 28.9159 7.90997 28.9167 5.98359 26.992C4.05887 25.0664 4.05887 21.9331 5.98359 20.0075L10.5533 15.4387L10.7372 15.2555C11.6703 14.3224 12.9103 13.8093 14.2286 13.8093C14.2451 13.8093 14.2616 13.8118 14.2781 13.8118C15.5783 13.825 16.7985 14.3348 17.72 15.2555C17.8611 15.3966 17.9898 15.5476 18.1119 15.7027C18.1449 15.7447 18.1746 15.7868 18.206 15.8297C18.2975 15.9543 18.3833 16.083 18.4625 16.2142C18.4774 16.2397 18.4972 16.2628 18.512 16.2884C18.9658 17.0788 19.9739 17.3527 20.7643 16.8989C21.5373 16.4551 21.8112 15.4807 21.3987 14.6986C21.3896 14.6813 21.3847 14.6632 21.3756 14.6458C21.3509 14.6029 21.3195 14.5658 21.2939 14.5237C21.1628 14.3043 21.02 14.0906 20.8674 13.8835C20.813 13.8093 20.7602 13.735 20.7032 13.6624C20.5003 13.405 20.2866 13.1551 20.0531 12.9216C19.1093 11.9778 17.9758 11.2955 16.7399 10.902C15.938 10.6462 15.0941 10.5093 14.2286 10.5093C13.5761 10.5093 12.9383 10.5934 12.3188 10.7403C10.8494 11.0876 9.49809 11.8276 8.40414 12.9224L3.65049 17.6752C0.438768 20.8878 0.438768 26.1142 3.65049 29.3259C5.25677 30.9313 7.36629 31.7349 9.47664 31.7349C11.587 31.7349 13.6949 30.9313 15.302 29.3259C15.9463 28.6824 15.9463 27.6371 15.302 26.9928L15.3011 26.992Z" fill="#939393"/>
<path d="M29.3534 16.9294L24.5932 21.6814C23.5042 22.7704 22.1512 23.5129 20.6827 23.8594C20.0639 24.0079 19.4204 24.0904 18.7687 24.0904C17.9024 24.0904 17.0609 23.9584 16.2607 23.7027C15.7244 23.5294 15.2047 23.2984 14.7097 23.0179C14.6602 22.9849 14.6024 22.9519 14.5447 22.9189C14.3302 22.7869 14.1157 22.6467 13.9012 22.4899C13.8352 22.4404 13.7609 22.3827 13.6867 22.3332C13.4309 22.1269 13.1834 21.9124 12.9442 21.6814C12.7132 21.4422 12.4987 21.1947 12.2924 20.9389C12.2429 20.8647 12.1852 20.7904 12.1274 20.7162C11.9789 20.5099 11.8387 20.2954 11.7067 20.0809C11.6819 20.0397 11.6489 19.9984 11.6242 19.9572C11.6159 19.9407 11.6077 19.9159 11.5994 19.8994C10.9064 18.6784 10.5352 17.3007 10.5352 15.8569C10.5352 15.7167 10.5434 15.5764 10.5517 15.4362L10.7332 15.2547C11.6737 14.3224 12.9112 13.8109 14.2312 13.8109H14.2807C13.9919 14.4462 13.8352 15.1392 13.8352 15.8569C13.8352 16.7644 14.0827 17.6307 14.5364 18.3897C14.6189 18.5217 14.7014 18.6454 14.7922 18.7692C14.8252 18.8187 14.8582 18.8599 14.8912 18.9012C15.0067 19.0579 15.1387 19.2064 15.2789 19.3467C15.4192 19.4869 15.5677 19.6189 15.7244 19.7344C15.7657 19.7674 15.8069 19.8004 15.8564 19.8334C15.9802 19.9242 16.1039 20.0067 16.2359 20.0892C16.9867 20.5347 17.8282 20.7822 18.7192 20.7904H18.7687C20.0887 20.7904 21.3262 20.2789 22.2667 19.3467L22.4482 19.1652L27.0187 14.5947C28.9409 12.6642 28.9409 9.53742 27.0187 7.60692C25.0882 5.68467 21.9614 5.68467 20.0309 7.60692L18.6449 9.00117L17.7704 9.87567L16.7392 10.8987C15.9389 10.6429 15.0974 10.5109 14.2312 10.5109C13.5794 10.5109 12.9359 10.5934 12.3172 10.7419C12.5152 10.4944 12.7214 10.2552 12.9442 10.0324L15.4357 7.54092L17.6962 5.27217C20.9054 2.06292 26.1359 2.06292 29.3534 5.27217C32.5627 8.48967 32.5627 13.7119 29.3534 16.9294Z" fill="#939393"/>
</g>
<defs>
<clipPath id="clip0_158_4029">
<rect width="33" height="33" fill="white" transform="translate(0 0.800781)"/>
</clipPath>
</defs>
</svg>
