<svg width="33" height="34" viewBox="0 0 33 34" fill="none" xmlns="http://www.w3.org/2000/svg">
<g clip-path="url(#clip0_158_3987)">
<path d="M1.2373 11.1133V25.1383C1.2373 26.1143 1.5904 26.9987 2.15718 27.7057L11.8633 19.9688L1.2373 11.1133Z" fill="#939393"/>
<path d="M30.8424 27.7057C31.4091 26.9995 31.7622 26.1143 31.7622 25.1383V11.1133L21.1362 19.968L30.8424 27.7057Z" fill="#939393"/>
<path d="M22.76 17.6341L18.1045 22.1633C18.5236 22.0016 18.9311 21.7847 19.3082 21.4918L21.1364 19.968L31.7624 11.1133L22.9745 17.168C22.9093 17.3231 22.8425 17.4782 22.76 17.6341Z" fill="#939393"/>
<path d="M13.595 21.4109C12.3418 20.3789 10.9946 19.0547 10.2397 17.6333C10.1572 17.4782 10.0904 17.3222 10.0252 17.1671L1.2373 11.1133L11.8633 19.968L13.595 21.4109Z" fill="#939393"/>
<path d="M19.308 21.4918C18.931 21.7838 18.5234 22.0008 18.1043 22.1633L17.1993 23.0436C16.7736 23.3249 16.225 23.3249 15.7993 23.0436C15.2531 22.6831 14.4446 22.1122 13.5941 21.4109L11.8624 19.968L2.15625 27.7049C2.91195 28.647 4.05953 29.2625 5.36138 29.2625H27.6364C28.9382 29.2625 30.0858 28.647 30.8415 27.7049L21.1354 19.968L19.308 21.4918Z" fill="#939393"/>
<path d="M27.6373 5.33838H5.3623C3.08448 5.33838 1.2373 7.18555 1.2373 9.46338V11.1134L10.0252 17.1681C8.77038 14.184 10.6596 11.3469 13.1247 11.3469C14.6031 11.3469 15.4933 12.1191 15.985 12.7832C16.2441 13.133 16.7564 13.133 17.0154 12.7832C17.5071 12.1191 18.3973 11.3469 19.8757 11.3469C22.3408 11.3469 24.2292 14.184 22.9752 17.1681L31.7631 11.1134V9.46338C31.7631 7.18555 29.9151 5.33838 27.6373 5.33838Z" fill="#939393"/>
<path d="M10.2397 17.6342C10.9945 19.0548 12.3418 20.3789 13.5949 21.4118C14.4455 22.1131 15.254 22.6832 15.8002 23.0445C16.2259 23.3258 16.7745 23.3258 17.2002 23.0445L18.1052 22.1642L22.7607 17.635C22.8432 17.4799 22.91 17.324 22.9752 17.1689C24.23 14.1848 22.3407 11.3477 19.8756 11.3477C18.3972 11.3477 17.5071 12.1199 17.0154 12.784C16.7563 13.1338 16.244 13.1338 15.9849 12.784C15.4932 12.1199 14.6031 11.3477 13.1247 11.3477C10.6596 11.3477 8.77115 14.1848 10.0252 17.1689C10.0903 17.324 10.1572 17.4791 10.2397 17.635V17.6342Z" fill="#F2F4F6"/>
</g>
<defs>
<clipPath id="clip0_158_3987">
<rect width="33" height="33" fill="white" transform="translate(0 0.800781)"/>
</clipPath>
</defs>
</svg>
