<svg width="33" height="34" viewBox="0 0 33 34" fill="none" xmlns="http://www.w3.org/2000/svg">
<g clip-path="url(#clip0_158_3947)">
<path d="M9.19973 24.6013C15.9227 31.3242 21.022 32.8546 25.0843 31.8877C27.3398 31.3506 29.3504 29.5133 30.6935 27.9846C31.7115 26.8246 31.5193 25.041 30.2983 24.0964L24.9275 19.94C24.3913 19.525 23.6298 19.5729 23.1497 20.053L20.2976 22.9051C19.8571 23.3456 19.1781 23.4331 18.6476 23.1072C17.7311 22.5445 16.1933 21.4539 14.271 19.5308C12.3488 17.6086 11.2581 16.0708 10.6946 15.1542C10.3688 14.6237 10.4562 13.9447 10.8968 13.5042L13.7488 10.6522C14.2281 10.1728 14.2768 9.41136 13.8618 8.87428L9.70546 3.50353C8.76083 2.28253 6.97636 2.09031 5.81723 3.10836C4.28851 4.45063 2.45123 6.46116 1.91416 8.71753C0.947258 12.7807 2.47763 17.8792 9.20056 24.6021L9.19973 24.6013Z" fill="#939393"/>
</g>
<defs>
<clipPath id="clip0_158_3947">
<rect width="33" height="33" fill="white" transform="translate(0 0.800781)"/>
</clipPath>
</defs>
</svg>
