<svg width="106" height="32" viewBox="0 0 106 32" fill="none" xmlns="http://www.w3.org/2000/svg">
<path d="M10.78 21.82C11.4333 21.82 11.9747 22.4173 12.404 23.612V24.732C11.8253 26.244 10.724 27.56 9.1 28.68L6.776 29.072C6.06667 29.072 5.46 28.4653 4.956 27.252C4.956 25.908 6.832 24.0973 10.584 21.82H10.78ZM6.944 26.16V26.692C7 26.9347 7.308 27.1867 7.868 27.448C8.83867 27.448 9.55733 26.6547 10.024 25.068V24.872L9.856 23.612C8.38133 24.452 7.41067 25.3013 6.944 26.16ZM4.76 11.236C5.88 11.236 6.53333 11.74 6.72 12.748C7.03733 13.252 7.24267 13.616 7.336 13.84L7.476 14.26L7.756 14.96C7.79333 15.52 8.01733 15.8 8.428 15.8C12.1427 15.2773 14.952 15.016 16.856 15.016L17.64 15.156V15.94L17.472 16.136L17.64 16.304V16.444L17.304 16.92L17.472 17.088V17.536C17.472 17.872 17.2667 18.04 16.856 18.04L16.072 17.872L10.332 18.516L10.164 18.32H10.024L3.164 19.916C3.164 20.14 2.58533 20.308 1.428 20.42L0.504 19.132V18.824C0.522667 18.3013 0.616 18.04 0.784 18.04L1.204 17.676L1.904 17.312L2.576 17.228L4.956 16.584L4.76 15.8V15.128L4.564 13.868L4.452 13.308L4.284 13.14V12.16C4.35867 11.544 4.51733 11.236 4.76 11.236ZM1.96 2.528H2.352C2.81867 2.528 3.17333 3.96533 3.416 6.84L3.584 7.036C3.696 7.50267 4.18133 7.736 5.04 7.736V7.932L9.324 7.568L10.052 8.8C10.052 9.36 9.324 9.82667 7.868 10.2L7.364 10.256H7.196L5.292 10.592L4.676 10.424L4.508 10.62H3.416C2.55733 10.62 1.95067 10.0133 1.596 8.8L1.624 8.268L1.428 8.1V6.308C1.428 3.788 1.60533 2.528 1.96 2.528ZM27.3409 16.192H28.9649L29.8889 16.332L30.0289 16.192L30.8409 16.444L31.0089 16.332H31.2609L31.4009 16.444V16.332L33.2209 16.724L33.7529 16.612L34.4249 17.536C34.2756 18.3387 33.8276 18.74 33.0809 18.74H32.9689L32.8009 18.6V18.74L31.9889 18.348H31.8209L31.6809 18.488L28.5449 18.236H27.3409C27.1356 18.236 26.9582 19.1227 26.8089 20.896V21.008L26.9489 21.176L26.6409 24.396V24.536L26.8089 24.648C26.5289 27.112 26.2116 28.344 25.8569 28.344H25.6049L25.1849 28.204C24.3822 28.204 23.9809 27.7653 23.9809 26.888L24.1209 25.852V24.928L24.2329 24.788H24.1209L24.2329 24.116V22.66L24.3729 22.492H24.2329C24.5129 20.924 24.6529 19.5893 24.6529 18.488V18.348L22.4969 18.6L22.3289 18.488L20.2289 19.02H20.0609L19.9209 18.88L19.5569 19.02C18.4742 18.46 17.9329 17.8253 17.9329 17.116C18.9409 16.5 20.2382 16.192 21.8249 16.192L22.2169 16.332L23.1689 16.192L23.2809 16.332L23.4489 16.192H24.7929L26.3889 15.912L27.3409 16.192ZM24.4569 3.228H24.7649C25.0449 3.34 25.2969 3.66667 25.5209 4.208L24.9049 6.532L25.0169 6.616V6.784L24.7929 7.26L25.0729 7.484L25.2129 7.372H25.4089L25.4929 7.484L27.0049 7.372H27.9849L28.0129 6.924C28.1622 5.84133 28.1529 4.936 27.9849 4.208L28.7969 3.592C29.5249 3.592 30.0102 3.83467 30.2529 4.32L30.1409 5.188L29.9729 5.664L30.0569 5.776L29.8889 6.168L30.0569 9.332H29.9449L30.3649 11.824V11.992C29.8236 13.056 29.3009 13.588 28.7969 13.588L28.8529 13.42C28.5169 13.6067 27.8729 13.7 26.9209 13.7V13.812L26.1929 13.7C24.7929 13.7 23.8969 13.8587 23.5049 14.176C22.5529 14.0827 22.1142 13.7187 22.1889 13.084L22.2169 12.944L22.5809 12.692C22.3382 12.0947 22.2542 11.4227 22.3289 10.676L22.4129 9.444L22.6089 8.464L22.9729 6.616L23.1689 6.532L23.0289 6.42L23.0569 6.28L23.2249 6.168L23.0569 6.028L23.0849 5.944L23.2529 5.776L23.1689 5.3C23.2996 4.292 23.7289 3.60133 24.4569 3.228ZM26.1649 8.968L24.6809 9.332L24.5409 11.124L24.5969 12.244C26.9676 12.3 28.1809 12.1133 28.2369 11.684L28.5169 10.732C28.3489 10.452 28.1902 9.864 28.0409 8.968L27.4809 8.856L27.3409 8.968H26.1649ZM39.9976 7.344C41.2856 7.568 41.9296 8.22133 41.9296 9.304C41.3696 12.5333 39.9789 14.148 37.7576 14.148C36.4509 13.7747 35.6576 13.252 35.3776 12.58V11.712C35.3776 10.1627 36.5349 8.78133 38.8496 7.568L39.9976 7.344ZM49.4056 8.436H49.6296L50.7216 9.556L48.7616 16.78V17.004L48.9576 17.2V17.48C47.9122 21.6613 47.2682 23.836 47.0256 24.004V24.228C45.5322 24.228 44.7856 23.6493 44.7856 22.492L45.2056 18.516L42.6856 19.132L40.1936 19.384L39.8016 19.664L39.3256 19.636H39.1296L36.4416 20.532C35.7882 20.252 35.2096 19.7387 34.7056 18.992V18.068C34.7056 17.6947 36.6096 17.1813 40.4176 16.528C40.4176 16.3413 40.8562 16.2387 41.7336 16.22L43.1336 15.912C44.2722 15.7067 45.0562 15.4173 45.4856 15.044H46.5776C47.9029 11.2173 48.8456 9.01467 49.4056 8.436ZM36.8896 11.488L37.5616 12.188H37.9816C38.6722 12.188 39.2509 11.3107 39.7176 9.556V9.304L39.5496 9.108V8.884C37.7762 9.46267 36.8896 10.3307 36.8896 11.488ZM59.1259 11.376C62.1873 11.8053 65.1179 11.9453 67.9179 11.796V11.992L68.0579 11.796C72.7806 11.8893 75.1793 12.4587 75.2539 13.504L75.0579 14.064L75.2819 14.26L74.1899 15.464H73.7979C69.8219 14.0267 65.3513 13.448 60.3859 13.728C59.8073 13.8027 59.2753 13.3827 58.7899 12.468L59.1259 11.376ZM62.0939 16.528L63.4099 16.892L63.6059 16.696L64.5579 16.892H69.4859C70.1953 16.892 70.8953 17.144 71.5859 17.648L71.3899 19.916V20.14L71.7539 21.624C71.7539 22.7813 70.2326 23.7987 67.1899 24.676L65.4819 25.852L65.8739 26.58L65.4819 26.944V27.168L65.8739 28.12C69.7753 26.608 72.8739 25.5253 75.1699 24.872C75.1699 24.648 75.4966 24.5173 76.1499 24.48C76.3739 24.7227 77.1299 24.9187 78.4179 25.068L78.6139 25.236V25.488C78.6139 26.72 76.8966 27.336 73.4619 27.336C70.0086 28.344 67.0406 29.4267 64.5579 30.584C63.6433 30.584 62.9993 29.0533 62.6259 25.992C62.6259 25.0213 63.5779 24.0787 65.4819 23.164C67.9086 22.3053 69.1219 21.4747 69.1219 20.672C69.1219 19.1787 68.2913 18.432 66.6299 18.432L66.4339 18.6H66.2379L66.0979 18.432H65.8739L63.2139 18.824C62.2059 17.9093 61.7019 17.34 61.7019 17.116L62.0939 16.528ZM68.8979 1.016C70.2606 1.38933 70.9419 1.828 70.9419 2.332L70.6619 4.88L70.7739 5.076L70.4099 8.38L70.5219 8.8C70.4473 9.36 70.3073 9.64 70.1019 9.64H69.9899L69.4579 9.444L68.3659 9.864L68.0859 9.22L68.6739 2.752V2.64L67.8339 2.444L67.0499 2.752H66.6299L66.5179 2.64L66.3499 2.752H66.2099C63.3539 2.808 61.9259 3.07867 61.9259 3.564H61.1419L60.4699 2.864C60.4699 2.06133 61.4033 1.66 63.2699 1.66C63.2699 1.492 65.1459 1.27733 68.8979 1.016ZM96.7059 0.427998L97.0699 1.52V1.688L97.4619 6.224L102.53 5.664L102.726 5.86H102.894L103.818 5.664C105.031 6.03733 105.638 6.34533 105.638 6.588L105.442 6.756L105.638 6.952V7.484L104.518 8.38C100.169 7.932 97.9939 7.52133 97.9939 7.148L97.7979 6.588C97.5739 6.588 97.4619 6.77467 97.4619 7.148L97.6019 7.848L97.4619 8.38L97.6019 8.968H97.4619L97.6019 9.5L98.5259 15.492L98.3579 16.024L98.5259 16.22H98.7219L98.5259 17.312L98.7219 19.664C98.1245 20.9893 97.4059 21.652 96.5659 21.652C96.0992 21.652 95.7259 20.3827 95.4459 17.844L95.6419 16.556L95.4459 15.128H95.6419L95.4459 14.932V14.736L95.6419 14.036L95.4459 11.292V9.5L95.6419 7.344L95.4459 5.132V2.948C95.4459 1.268 95.8192 0.427998 96.5659 0.427998H96.7059ZM87.8299 4.964C88.7259 5.692 89.2672 6.42 89.4539 7.148C89.1552 7.148 88.8472 9.808 88.5299 15.128V18.04C88.5299 18.936 87.9885 19.412 86.9059 19.468C86.1779 19.468 85.7019 18.796 85.4779 17.452L85.6739 16.752L85.4779 15.828L85.8139 14.932L85.6739 14.4L86.0099 14.036V13.672C85.0579 13.56 84.5819 13.3733 84.5819 13.112L84.3859 13.308H83.2939L82.3699 13.112V14.204C82.9859 17.844 83.6579 19.664 84.3859 19.664C86.5512 20.1307 87.6992 20.4947 87.8299 20.756V21.092L86.7379 22.912C83.4712 22.912 81.8379 22.5573 81.8379 21.848C80.6619 17.6667 79.6912 13.1773 78.9259 8.38H79.1219L78.9259 8.24V7.344C78.9259 7.02667 79.1685 6.83067 79.6539 6.756C80.0832 6.756 80.6245 7.29733 81.2779 8.38L81.1379 8.576V8.772C81.3805 10.5827 81.7912 11.488 82.3699 11.488L86.2059 11.88C86.6725 9.752 86.9059 7.50267 86.9059 5.132L87.1019 4.964H87.8299ZM95.6419 23.92C96.2952 23.92 96.8365 24.5267 97.2659 25.74V26.832C96.6872 28.344 95.5952 29.6693 93.9899 30.808L91.6379 31.172C90.9285 31.172 90.3219 30.5747 89.8179 29.38C89.8179 28.036 91.6939 26.216 95.4459 23.92H95.6419ZM91.8339 28.26V28.792C91.8899 29.0533 92.1885 29.3053 92.7299 29.548C93.7192 29.548 94.4379 28.7547 94.8859 27.168V27L94.7459 25.74C93.2525 26.58 92.2819 27.42 91.8339 28.26Z" fill="#111111"/>
</svg>
